<!DOCTYPE svg PUBLIC "-//W3C//DTD SVG 1.1//EN" "http://www.w3.org/Graphics/SVG/1.1/DTD/svg11.dtd">
<!-- Uploaded to: SVG Repo, www.svgrepo.com, Transformed by: SVG Repo Mixer Tools -->
<svg width="800px" height="800px" viewBox="0 0 1024 1024" class="icon" version="1.1" xmlns="http://www.w3.org/2000/svg" fill="#000000">
<g id="SVGRepo_bgCarrier" stroke-width="0"/>
<g id="SVGRepo_tracerCarrier" stroke-linecap="round" stroke-linejoin="round"/>
<g id="SVGRepo_iconCarrier">
<path d="M659.893248 659.950592c-27.172864 0-49.199104-22.02624-49.199104-49.19808s22.02624-49.199104 49.199104-49.199104c27.170816 0 49.197056 22.027264 49.197056 49.199104 0 27.170816-22.02624 49.19808-49.197056 49.19808m-295.191552 0c-27.170816 0-49.197056-22.02624-49.197056-49.19808s22.02624-49.199104 49.197056-49.199104c27.172864 0 49.199104 22.027264 49.199104 49.199104 0 27.170816-22.02624 49.19808-49.199104 49.19808m528.876544 100.421632l-55.54176-315.639808c-12.535808-71.241728-81.434624-129.170432-153.851904-129.170432H340.415488c-72.465408 0-141.298688 57.831424-153.852928 129.170432l-55.54176 315.639808c-12.536832 71.241728 35.996672 129.170432 108.439552 129.170432h545.67936c72.40704 0 120.992768-57.831424 108.438528-129.170432" fill="#FFF200"/>
<path d="M659.893248 582.033408c15.835136 0 28.71808 12.882944 28.71808 28.71808 0 15.835136-12.882944 28.71808-28.71808 28.71808-15.83616 0-28.719104-12.88192-28.719104-28.71808 0-15.835136 12.882944-28.71808 28.719104-28.71808M393.4208 610.751488c0 15.835136-12.882944 28.71808-28.71808 28.71808-15.835136 0-28.71808-12.88192-28.71808-28.71808 0-15.835136 12.882944-28.71808 28.71808-28.71808 15.835136 0 28.71808 12.882944 28.71808 28.71808m462.124032 227.77856c-16.52736 19.688448-41.531392 30.532608-70.40512 30.532608H239.461376c-28.859392 0-53.855232-10.846208-70.385664-30.538752-16.53248-19.695616-22.883328-46.189568-17.88416-74.602496l55.54176-315.640832v0.001024c5.239808-29.774848 22.094848-57.903104 47.460352-79.203328 25.3696-21.30432 55.990272-33.037312 86.222848-33.037312h12.514304c-0.156672 1.2032-0.319488 2.390016-0.473088 3.60448-9.054208 71.922688-8.443904 148.062208-8.039424 198.44608l0.047104 5.9904c-28.580864 8.690688-49.440768 35.284992-49.440768 66.669568 0 38.42048 31.256576 69.67808 69.67808 69.67808 38.42048 0 69.67808-31.2576 69.67808-69.67808 0-31.2064-20.621312-57.686016-48.95232-66.52928l-0.0512-6.459392c-0.418816-52.242432-0.994304-123.790336 7.719936-193.002496 0.370688-2.942976 0.758784-5.84192 1.15712-8.71936h238.674944a743.82336 743.82336 0 0 1 1.358848 10.07104c8.846336 69.628928 8.324096 144.141312 7.979008 193.446912l-0.026624 3.785728c-29.899776 7.835648-52.026368 35.083264-52.026368 67.406848 0 38.42048 31.2576 69.67808 69.679104 69.67808 38.421504 0 69.67808-31.2576 69.67808-69.67808 0-30.252032-19.385344-56.050688-46.381056-65.65888l0.03584-5.246976c0.374784-53.561344 0.909312-130.277376-8.963072-203.804672h9.921536c30.201856 0 60.818432 11.74528 86.208512 33.072128 25.380864 21.31968 42.241024 49.434624 47.473664 79.167488l55.542784 315.640832c5.001216 28.428288-1.342464 54.924288-17.864704 74.60864M452.064256 181.0432C469.0176 163.954688 489.038848 155.648 513.272832 155.648c24.290304 0 44.38528 8.3456 61.432832 25.511936 22.654976 22.81472 39.75168 61.03552 51.047424 113.922048H401.303552c11.149312-52.988928 28.152832-91.245568 50.760704-114.036736m461.684736 575.778816l-55.542784-315.640832c-6.897664-39.19872-28.72832-75.932672-61.467648-103.433216-32.758784-27.51488-72.730624-42.668032-112.553984-42.668032h-16.666624c-11.392-57.43616-30.803968-109.606912-63.74912-142.783488C578.987008 127.342592 548.540416 114.688 513.272832 114.688c-35.219456 0-65.596416 12.6208-90.287104 37.511168-29.825024 30.06464-50.735104 77.05088-63.485952 142.882816h-19.083264c-39.852032 0-79.826944 15.13984-112.5632 42.630144-32.728064 27.482112-54.554624 64.229376-61.46048 103.471104l-55.54176 315.640832c-7.134208 40.54016 2.403328 78.907392 26.852352 108.035072 24.446976 29.124608 60.58496 45.164544 101.757952 45.164544h545.678336c41.187328 0 77.33248-16.037888 101.777408-45.1584 24.438784-29.116416 33.968128-67.485696 26.831872-108.041216" fill="#000000"/>
</g>
</svg>