<!DOCTYPE svg PUBLIC "-//W3C//DTD SVG 1.1//EN" "http://www.w3.org/Graphics/SVG/1.1/DTD/svg11.dtd">
<!-- Uploaded to: SVG Repo, www.svgrepo.com, Transformed by: SVG Repo Mixer Tools -->
<svg fill="#000000" width="800px" height="800px" viewBox="0 0 32 32" style="fill-rule:evenodd;clip-rule:evenodd;stroke-linejoin:round;stroke-miterlimit:2;" version="1.1" xml:space="preserve" xmlns="http://www.w3.org/2000/svg" xmlns:serif="http://www.serif.com/" xmlns:xlink="http://www.w3.org/1999/xlink">
<g id="SVGRepo_bgCarrier" stroke-width="0"/>
<g id="SVGRepo_tracerCarrier" stroke-linecap="round" stroke-linejoin="round"/>
<g id="SVGRepo_iconCarrier"> <g transform="matrix(1,0,0,1,-240,-96)"> <g transform="matrix(1.33333,0,0,1.33333,-28.3333,-35.3333)"> <circle cx="217" cy="106" r="3" style="fill:#e619df;"/> </g> <g transform="matrix(-1.33333,0,0,1.33333,540.333,-23.3333)"> <circle cx="217" cy="106" r="3" style="fill:#e619df;"/> </g> <path d="M256.1,105L244,105C243.448,105 243,105.448 243,106C243,106.552 243.448,107 244,107L256.1,107C256.564,109.281 258.583,111 261,111C263.417,111 265.436,109.281 265.9,107L268,107C268.552,107 269,106.552 269,106C269,105.448 268.552,105 268,105L265.9,105C265.436,102.719 263.417,101 261,101C258.583,101 256.564,102.719 256.1,105ZM261,103C262.656,103 264,104.344 264,106C264,107.656 262.656,109 261,109C259.344,109 258,107.656 258,106C258,104.344 259.344,103 261,103Z" style="fill:#f0e80a;"/> <path d="M246.1,117L244,117C243.448,117 243,117.448 243,118C243,118.552 243.448,119 244,119L246.1,119C246.564,121.281 248.583,123 251,123C253.417,123 255.436,121.281 255.9,119L268,119C268.552,119 269,118.552 269,118C269,117.448 268.552,117 268,117L255.9,117C255.436,114.719 253.417,113 251,113C248.583,113 246.564,114.719 246.1,117ZM251,115C252.656,115 254,116.344 254,118C254,119.656 252.656,121 251,121C249.344,121 248,119.656 248,118C248,116.344 249.344,115 251,115Z" style="fill:#f0e80a;"/> </g> </g>
</svg>