<?xml version="1.0" encoding="iso-8859-1"?>
<!-- Uploaded to: SVG Repo, www.svgrepo.com, Generator: SVG Repo Mixer Tools -->
<svg height="800px" width="800px" version="1.1" id="Layer_1" xmlns="http://www.w3.org/2000/svg" xmlns:xlink="http://www.w3.org/1999/xlink" 
	 viewBox="0 0 511.999 511.999" xml:space="preserve">
<circle style="fill:#FFFFFF;" cx="261.339" cy="140.965" r="118.899"/>
<path d="M122.336,139.009c0,76.772,62.236,139.008,139.008,139.008s139.008-62.237,139.008-139.008S338.116,0.001,261.344,0.001
	c-0.005,0-0.011,0-0.016,0C184.564,0.014,122.341,62.245,122.336,139.009z M368.335,139.009
	c0,59.099-47.909,107.007-107.007,107.007s-107.007-47.909-107.007-107.007S202.229,32.001,261.328,32.001l0,0
	C320.399,32.067,368.269,79.937,368.335,139.009z"/>
<path style="fill:#E21B1B;" d="M511.998,511.998c0,0,1.776-143.999-140.447-186.671l-115.552,87.12l-115.552-87.104
	C-1.775,367.999,0.001,511.998,0.001,511.998H511.998z"/>
</svg>