<?xml version="1.0" encoding="iso-8859-1"?>
<!-- Uploaded to: SVG Repo, www.svgrepo.com, Generator: SVG Repo Mixer Tools -->
<svg version="1.1" id="Layer_1" xmlns="http://www.w3.org/2000/svg" xmlns:xlink="http://www.w3.org/1999/xlink" 
	 viewBox="0 0 512 512" xml:space="preserve">
<polygon style="fill:#3B67AA;" points="78.889,346.92 78.889,265.83 47.542,265.83 47.542,346.92 0,346.92 0,378.267 512,378.267 
	512,346.92 "/>
<rect x="15.289" y="413.269" style="fill:#B4B4B4;" width="481.426" height="80.624"/>
<g>
	<rect x="15.289" y="413.269" style="fill:#E0E0E0;" width="481.426" height="40.311"/>
	
		<rect x="2.206" y="134.957" transform="matrix(-0.866 0.5 -0.5 -0.866 533.8459 179.204)" style="fill:#E0E0E0;" width="481.416" height="52.338"/>
</g>
<rect x="-4.332" y="136.716" transform="matrix(-0.866 0.5 -0.5 -0.866 515.9847 161.3441)" style="fill:#F1F1F1;" width="481.416" height="26.174"/>
<g>
	<rect x="258.173" y="248.061" style="fill:#FBBA00;" width="31.347" height="66.435"/>
	
		<rect x="172.001" y="279.263" transform="matrix(-0.3827 -0.9239 0.9239 -0.3827 11.2698 597.4038)" style="fill:#FBBA00;" width="66.436" height="31.348"/>
	
		<rect x="326.798" y="261.731" transform="matrix(-0.9239 -0.3827 0.3827 -0.9239 546.0001 698.5064)" style="fill:#FBBA00;" width="31.348" height="66.436"/>
</g>
</svg>