<?xml version="1.0" encoding="iso-8859-1"?>
<!-- Uploaded to: SVG Repo, www.svgrepo.com, Generator: SVG Repo Mixer Tools -->
<svg height="800px" width="800px" version="1.1" id="Layer_1" xmlns="http://www.w3.org/2000/svg" xmlns:xlink="http://www.w3.org/1999/xlink" 
	 viewBox="0 0 512.001 512.001" xml:space="preserve">
<g>
	<path style="fill:#77AAD4;" d="M0,344c39.764,0,72-32.236,72-72l0,0c0,39.764,32.236,72,72,72l0,0c-39.764,0-72,32.236-72,72l0,0
		C72,376.236,39.764,344,0,344L0,344z"/>
	<path style="fill:#77AAD4;" d="M240.001,400c61.856,0,112.001-50.144,112.001-112l0,0c0,61.856,50.144,112,112.001,112l0,0
		c-61.856,0-112.001,50.144-112.001,112.001l0,0C352,450.144,301.856,400,240.001,400L240.001,400z"/>
	<path style="fill:#77AAD4;" d="M88,96c48.601,0,88-39.399,88-88l0,0c0,48.601,39.399,88,88,88l0,0c-48.601,0-88,39.399-88,88l0,0
		C176.001,135.399,136.601,96,88,96L88,96z"/>
</g>
<g>
	<path style="fill:#1D71B8;" d="M80.001,204c19.883,0,36-16.117,36-36l0,0c0,19.883,16.117,36,36,36l0,0c-19.883,0-36,16.117-36,36
		l0,0C116,220.118,99.882,204,80.001,204L80.001,204z"/>
	<path style="fill:#1D71B8;" d="M432,208.001c22.092,0,40-17.908,40-40l0,0c0,22.092,17.908,40,40,40l0,0c-22.092,0-40,17.908-40,40
		l0,0C472,225.909,454.091,208.001,432,208.001L432,208.001z"/>
	<path style="fill:#1D71B8;" d="M240.001,248c22.092,0,40-17.908,40-40l0,0c0,22.092,17.908,40,40,40l0,0c-22.092,0-40,17.908-40,40
		l0,0C280,265.908,262.091,248,240.001,248L240.001,248z"/>
	<path style="fill:#1D71B8;" d="M0,47.947c22.092,0,40-17.909,40-40l0,0c0,22.091,17.908,40,40,40l0,0c-22.092,0-40,17.908-40,40
		l0,0C40,65.855,22.092,47.947,0,47.947L0,47.947z"/>
	<path style="fill:#1D71B8;" d="M320,40c22.092,0,40-17.908,40-40l0,0c0,22.092,17.908,40,40,40l0,0c-22.092,0-40,17.908-40,40l0,0
		C360,57.909,342.092,40,320,40L320,40z"/>
	<path style="fill:#1D71B8;" d="M136,472c22.092,0,40-17.908,40-40l0,0c0,22.092,17.908,40,40,40l0,0c-22.092,0-40,17.908-40,40l0,0
		C176.001,489.908,158.091,472,136,472L136,472z"/>
</g>
<g>
	<path style="fill:#1D1D1B;" d="M123.901,240.001h-15.802c0-15.494-12.605-28.099-28.099-28.099v-15.802
		c15.494,0,28.099-12.605,28.099-28.099h15.802c0,15.494,12.605,28.099,28.099,28.099v15.802
		C136.506,211.902,123.901,224.506,123.901,240.001z M105.101,204c4.24,2.966,7.934,6.659,10.899,10.899
		c2.966-4.24,6.659-7.934,10.899-10.899c-4.24-2.966-7.934-6.659-10.899-10.899C113.034,197.341,109.341,201.035,105.101,204z"/>
	<path style="fill:#1D1D1B;" d="M79.901,416H64.099c0-35.344-28.754-64.099-64.099-64.099v-15.802
		c35.344,0,64.099-28.754,64.099-64.099h15.802c0,35.344,28.754,64.099,64.099,64.099v15.802
		C108.656,351.901,79.901,380.656,79.901,416z M34.631,344c16.282,7.862,29.506,21.088,37.37,37.37
		c7.862-16.282,21.088-29.506,37.37-37.37c-16.282-7.862-29.506-21.088-37.37-37.37C64.137,322.912,50.912,336.137,34.631,344z"/>
	<path style="fill:#1D1D1B;" d="M479.901,248h-15.802c0-17.699-14.399-32.099-32.099-32.099v-15.802
		c17.699,0,32.099-14.399,32.099-32.099h15.802c0,17.699,14.399,32.099,32.099,32.099v15.802
		C494.301,215.902,479.901,230.301,479.901,248z M458.328,208.001c5.428,3.584,10.087,8.244,13.671,13.671
		c3.584-5.428,8.244-10.087,13.671-13.671c-5.428-3.584-10.087-8.244-13.671-13.671
		C468.416,199.756,463.756,204.415,458.328,208.001z"/>
	<path style="fill:#1D1D1B;" d="M287.901,288h-15.802c0-17.699-14.399-32.099-32.099-32.099v-15.802
		c17.699,0,32.099-14.399,32.099-32.099h15.802c0,17.699,14.399,32.099,32.099,32.099v15.802
		C302.301,255.901,287.901,270.301,287.901,288z M266.328,248c5.428,3.584,10.087,8.244,13.671,13.671
		c3.584-5.428,8.244-10.087,13.671-13.671c-5.428-3.584-10.087-8.244-13.671-13.671C276.416,239.756,271.756,244.416,266.328,248z"
		/>
	<path style="fill:#1D1D1B;" d="M47.901,87.947H32.099C32.099,70.248,17.7,55.848,0,55.848V40.046
		c17.699,0,32.099-14.399,32.099-32.099h15.802c0,17.699,14.399,32.099,32.099,32.099v15.802
		C62.301,55.848,47.901,70.248,47.901,87.947z M26.329,47.947C31.757,51.531,36.416,56.19,40,61.618
		c3.584-5.428,8.244-10.087,13.671-13.671C48.244,44.363,43.584,39.703,40,34.276C36.415,39.703,31.757,44.363,26.329,47.947z"/>
	<path style="fill:#1D1D1B;" d="M367.901,80.001h-15.802c0-17.699-14.399-32.099-32.099-32.099V32.099
		c17.699,0,32.099-14.399,32.099-32.099h15.802c0,17.699,14.399,32.099,32.099,32.099v15.802
		C382.301,47.901,367.901,62.301,367.901,80.001z M346.329,40c5.428,3.584,10.087,8.244,13.671,13.671
		c3.584-5.428,8.244-10.087,13.671-13.671c-5.428-3.584-10.087-8.244-13.671-13.671C356.415,31.757,351.757,36.415,346.329,40z"/>
	<path style="fill:#1D1D1B;" d="M183.902,512h-15.802c0-17.699-14.399-32.099-32.099-32.099v-15.802
		c17.699,0,32.099-14.399,32.099-32.099h15.802c0,17.699,14.399,32.099,32.099,32.099v15.802
		C198.301,479.901,183.902,494.301,183.902,512z M162.328,472c5.428,3.584,10.087,8.244,13.671,13.671
		c3.584-5.428,8.244-10.087,13.671-13.671c-5.428-3.584-10.087-8.244-13.671-13.671C172.415,463.756,167.756,468.416,162.328,472z"
		/>
	<path style="fill:#1D1D1B;" d="M359.901,512h-15.802c0-57.4-46.698-104.099-104.099-104.099v-15.802
		c57.4,0,104.099-46.698,104.099-104.099h15.802c0,57.4,46.698,104.099,104.099,104.099v15.802
		C406.6,407.902,359.901,454.6,359.901,512z M282.82,400c31.723,12.171,57.01,37.457,69.18,69.18
		c12.171-31.723,37.457-57.01,69.18-69.18c-31.723-12.171-57.01-37.457-69.18-69.18C339.829,362.542,314.543,387.829,282.82,400z"/>
	<path style="fill:#1D1D1B;" d="M183.902,184h-15.802c0-44.167-35.932-80.099-80.098-80.099V88.099
		c44.167,0,80.098-35.932,80.098-80.098h15.802c0,44.167,35.932,80.098,80.098,80.098v15.802
		C219.833,103.901,183.902,139.833,183.902,184z M126.115,96c22.284,9.689,40.195,27.601,49.884,49.884
		c9.689-22.284,27.601-40.195,49.884-49.884c-22.284-9.689-40.195-27.601-49.884-49.884C166.311,68.399,148.399,86.311,126.115,96z"
		/>
</g>
</svg>